<svg width="144" height="46" viewBox="0 0 144 46" fill="none" xmlns="http://www.w3.org/2000/svg">
<path d="M67.59 15.5508H59.16C58.83 15.5508 58.56 15.6566 58.33 15.8577C58.11 16.0694 58 16.3446 58 16.6939C58 17.0432 58.11 17.329 58.33 17.5407C58.55 17.7524 58.83 17.8583 59.16 17.8583H62.14V28.3901C62.14 28.7394 62.25 29.0252 62.48 29.2687C62.71 29.5121 63 29.618 63.35 29.618C63.7 29.618 64.02 29.5015 64.25 29.2687C64.48 29.0358 64.6 28.7394 64.6 28.3901V17.8583H67.58C67.91 17.8583 68.18 17.7524 68.41 17.5513C68.63 17.3396 68.74 17.0644 68.74 16.7151C68.74 16.3658 68.63 16.0906 68.41 15.8683C68.19 15.6566 67.91 15.5508 67.58 15.5508H67.59Z" fill="#3C3C3B"/>
<path d="M84.9698 27.649C84.8098 27.5538 84.6898 27.4268 84.6398 27.2468C84.5798 27.0775 84.5498 26.8552 84.5298 26.6011C84.5098 26.3471 84.4798 26.0507 84.4298 25.712C84.3998 25.3521 84.3198 25.0134 84.1898 24.6959C84.0598 24.3783 83.8698 24.082 83.6398 23.8068C83.4898 23.6268 83.2998 23.468 83.0998 23.3199C83.3698 23.1293 83.6398 22.9176 83.8698 22.653C84.1998 22.2614 84.4698 21.8274 84.6698 21.3511C84.8698 20.8642 84.9598 20.3773 84.9598 19.8586C84.9598 19.0119 84.7798 18.2709 84.4298 17.6147C84.0798 16.969 83.6098 16.4503 83.0298 16.0904C82.4498 15.72 81.8398 15.54 81.1798 15.54H75.7098C75.3798 15.54 75.1098 15.6565 74.8798 15.8893C74.6498 16.1222 74.5498 16.4186 74.5498 16.7679V28.3794C74.5498 28.7287 74.6898 29.0145 74.9698 29.2579C75.2498 29.4908 75.5598 29.6072 75.9198 29.6072C76.2398 29.6072 76.4798 29.4908 76.6598 29.2579C76.8398 29.0251 76.9298 28.7287 76.9298 28.3794V24.4842H80.4798C80.7698 24.4842 81.0198 24.5265 81.2398 24.59C81.4598 24.6641 81.6298 24.77 81.7698 24.9076C81.9098 25.0452 82.0198 25.2145 82.0898 25.4051C82.1698 25.5956 82.1998 25.8073 82.1998 26.0402C82.1998 26.7387 82.2698 27.3103 82.3998 27.7443C82.5298 28.1889 82.7098 28.5382 82.9198 28.8028C83.1298 29.0674 83.3498 29.2579 83.5598 29.3955C83.6998 29.4802 83.8798 29.5437 84.0898 29.5861C84.3098 29.6284 84.5198 29.6284 84.7398 29.5861C84.9598 29.5437 85.1298 29.4273 85.2698 29.2579C85.4898 29.0039 85.5598 28.7075 85.4898 28.3794C85.4198 28.0513 85.2498 27.7972 84.9698 27.6279V27.649ZM82.2698 21.1923C82.1298 21.5734 81.9498 21.8697 81.7398 22.092C81.5198 22.3143 81.2998 22.4202 81.0798 22.4202H76.9198V17.8581H81.0798C81.4198 17.8581 81.7398 18.0592 82.0398 18.4509C82.3398 18.8425 82.4898 19.34 82.4898 19.9327C82.4898 20.3879 82.4198 20.8113 82.2798 21.1923H82.2698Z" fill="#3C3C3B"/>
<path d="M92.5996 15.5508C92.2496 15.5508 91.9596 15.6672 91.7296 15.9001C91.4996 16.1329 91.3896 16.4293 91.3896 16.7786V28.3901C91.3896 28.7394 91.4996 29.0252 91.7096 29.2687C91.9196 29.5121 92.2096 29.618 92.5596 29.618C92.8796 29.618 93.1596 29.5015 93.3996 29.2687C93.6396 29.0358 93.7596 28.7394 93.7596 28.3901V16.7786C93.7596 16.4293 93.6396 16.1435 93.4096 15.9001C93.1796 15.6672 92.9096 15.5508 92.5996 15.5508Z" fill="#3C3C3B"/>
<path d="M108.42 22.6953C108.04 22.3778 107.56 22.1237 106.99 21.9226C106.41 21.7215 105.75 21.5521 104.99 21.404C104.41 21.2875 103.91 21.1499 103.49 20.9912C103.07 20.8324 102.75 20.6313 102.53 20.3666C102.31 20.102 102.2 19.7739 102.2 19.3717C102.2 19.033 102.29 18.7472 102.49 18.4826C102.68 18.2285 102.96 18.0274 103.33 17.8792C103.7 17.731 104.16 17.6569 104.71 17.6569C105.04 17.6569 105.39 17.7099 105.77 17.8263C106.15 17.9427 106.51 18.0803 106.85 18.2497C107.19 18.419 107.46 18.599 107.67 18.7789C107.82 18.8954 107.99 18.9589 108.18 18.9589C108.47 18.9589 108.72 18.8424 108.94 18.599C109.15 18.3555 109.26 18.0909 109.26 17.7945C109.26 17.3923 109.08 17.043 108.71 16.7255C108.27 16.3233 107.69 15.9951 106.99 15.7305C106.29 15.4659 105.53 15.3389 104.7 15.3389C103.83 15.3389 103.03 15.4976 102.31 15.8258C101.59 16.1433 101.02 16.6196 100.59 17.2335C100.17 17.8475 99.95 18.5884 99.95 19.4669C99.95 20.0385 100.04 20.5572 100.22 21.0229C100.4 21.4886 100.66 21.8909 101.01 22.2296C101.36 22.5683 101.79 22.8541 102.31 23.0764C102.83 23.2986 103.43 23.4574 104.11 23.5738C104.83 23.6797 105.43 23.8279 105.89 24.029C106.36 24.2195 106.71 24.463 106.93 24.7382C107.16 25.024 107.27 25.3627 107.27 25.7649C107.27 26.1036 107.15 26.4 106.91 26.654C106.67 26.9186 106.35 27.1197 105.96 27.2785C105.57 27.4373 105.14 27.5114 104.67 27.5114C103.97 27.5114 103.39 27.4055 102.91 27.1938C102.44 26.9821 101.96 26.6646 101.48 26.2518C101.29 26.093 101.08 26.0083 100.84 26.0083C100.52 26.0083 100.26 26.1248 100.05 26.3576C99.84 26.5905 99.74 26.8657 99.74 27.1727C99.74 27.3632 99.78 27.5431 99.87 27.7337C99.96 27.9242 100.08 28.0935 100.25 28.2311C100.9 28.8239 101.57 29.2367 102.28 29.4696C102.99 29.7024 103.79 29.8189 104.67 29.8189C105.55 29.8189 106.33 29.6495 107.07 29.3214C107.81 28.9827 108.41 28.5064 108.86 27.8713C109.32 27.2468 109.54 26.4952 109.54 25.6167C109.54 24.9287 109.45 24.3571 109.25 23.8808C109.06 23.4045 108.78 23.0128 108.4 22.6953H108.42Z" fill="#3C3C3B"/>
<path d="M124.97 15.5293C124.64 15.5293 124.38 15.6457 124.19 15.8786C124 16.1115 123.9 16.4078 123.9 16.7571V24.0289C123.9 24.6957 123.75 25.2779 123.46 25.7648C123.17 26.2517 122.79 26.6328 122.32 26.8974C121.85 27.162 121.35 27.2996 120.8 27.2996C120.29 27.2996 119.82 27.162 119.37 26.8974C118.92 26.6328 118.56 26.2517 118.29 25.7648C118.02 25.2779 117.88 24.6957 117.88 24.0289V16.7571C117.88 16.4078 117.76 16.122 117.53 15.8786C117.3 15.6457 117.03 15.5293 116.74 15.5293C116.39 15.5293 116.09 15.6457 115.87 15.8786C115.64 16.1115 115.53 16.4078 115.53 16.7571V24.0289C115.53 25.1403 115.75 26.1247 116.2 26.982C116.65 27.8394 117.27 28.5063 118.06 28.9932C118.85 29.4801 119.77 29.7129 120.8 29.7129C121.83 29.7129 122.75 29.4695 123.53 28.9932C124.31 28.5063 124.93 27.8394 125.38 26.982C125.83 26.1247 126.05 25.1403 126.05 24.0289V16.7571C126.05 16.4078 125.95 16.122 125.75 15.8786C125.55 15.6457 125.28 15.5293 124.95 15.5293H124.97Z" fill="#3C3C3B"/>
<path d="M143.54 15.8682C143.35 15.6565 143.1 15.5506 142.8 15.5506C142.5 15.5506 142.23 15.6565 142.04 15.8682C141.85 16.0799 141.76 16.3551 141.76 16.6726V25.3204L134.85 15.9846C134.76 15.8364 134.62 15.7306 134.43 15.6565C134.24 15.5824 134.06 15.54 133.88 15.54C133.55 15.54 133.28 15.6565 133.05 15.8893C132.82 16.1222 132.72 16.4186 132.72 16.7679V28.4852C132.72 28.8028 132.81 29.078 133.01 29.2897C133.2 29.5014 133.45 29.6072 133.75 29.6072C134.05 29.6072 134.32 29.5014 134.52 29.2897C134.72 29.078 134.81 28.8028 134.81 28.4852V19.901L141.78 29.2685C141.87 29.3744 142 29.459 142.17 29.5225C142.34 29.5861 142.51 29.6178 142.67 29.6178C143 29.6178 143.27 29.5014 143.5 29.2685C143.72 29.0357 143.83 28.7393 143.83 28.39V16.6726C143.83 16.3551 143.74 16.0799 143.54 15.8682Z" fill="#3C3C3B"/>
<path d="M42.9384 34.4438C44.8807 31.0704 46 27.1656 46 23C46 18.8344 44.8807 14.9296 42.9384 11.5562C42.9282 11.5358 42.9282 11.5204 42.918 11.5C42.9078 11.4847 42.8924 11.4744 42.8822 11.4591C40.8736 8.00911 37.9909 5.13156 34.5409 3.12289C34.5256 3.11267 34.5153 3.09733 34.5 3.08711C34.4847 3.07689 34.4642 3.07689 34.4438 3.06667C31.0756 1.11933 27.1656 0 23 0C18.8344 0 14.9296 1.11933 11.5511 3.06156C11.5358 3.07178 11.5153 3.07178 11.5 3.082C11.4847 3.09222 11.4744 3.10756 11.4591 3.11778C4.61533 7.10956 0 14.5207 0 23C0 27.1656 1.11933 31.0704 3.06156 34.4438C3.07178 34.4642 3.07178 34.4796 3.082 34.5C3.09733 34.5256 3.11778 34.546 3.13311 34.5664C5.14178 38.0062 8.01422 40.8736 11.4591 42.8822C11.4744 42.8924 11.4847 42.9129 11.5 42.918C11.5256 42.9333 11.5562 42.9436 11.5818 42.9538C14.95 44.8909 18.8447 46 23 46C27.1553 46 31.05 44.8858 34.4182 42.9538C34.4438 42.9436 34.4744 42.9333 34.5 42.918C34.5153 42.9078 34.5256 42.8924 34.546 42.8771C37.9858 40.8736 40.8582 38.0011 42.872 34.5613C42.8873 34.5409 42.9078 34.5204 42.9231 34.4949C42.9333 34.4796 42.9333 34.4591 42.9436 34.4387L42.9384 34.4438ZM23 38.3436C14.5411 38.3436 7.65644 31.4589 7.65644 23C7.65644 14.5411 14.5411 7.65644 23 7.65644C31.4589 7.65644 38.3436 14.5411 38.3436 23C38.3436 31.4589 31.4589 38.3436 23 38.3436ZM18.2313 38.7116L17.25 42.3762C17.1733 42.6624 17.342 42.9589 17.6333 43.0356C17.6793 43.0458 17.7253 43.056 17.7713 43.056C18.0116 43.056 18.2262 42.8976 18.2927 42.6573L19.274 38.9927C20.3013 39.2329 21.3696 39.376 22.4633 39.4118V44.9113C18.8702 44.8244 15.4816 43.8738 12.512 42.2484L15.2618 37.4849C16.2022 37.9909 17.1938 38.4049 18.2313 38.7167V38.7116ZM23.5418 39.4067C24.6356 39.3709 25.6987 39.2278 26.7311 38.9876L27.7124 42.6522C27.7789 42.8924 27.9936 43.0509 28.2338 43.0509C28.2798 43.0509 28.3258 43.0458 28.3718 43.0304C28.658 42.9538 28.8318 42.6573 28.7551 42.3711L27.7738 38.7064C28.8113 38.3896 29.8029 37.9756 30.7433 37.4747L33.4931 42.2382C30.5236 43.8636 27.14 44.8142 23.5418 44.9011V39.4016V39.4067ZM1.09378 23.5418H6.59333C6.62911 24.6356 6.77222 25.6987 7.01244 26.7311L3.34778 27.7124C3.06156 27.7891 2.88778 28.0856 2.96444 28.3718C3.03089 28.612 3.24556 28.7704 3.48578 28.7704C3.53178 28.7704 3.57778 28.7653 3.62378 28.75L7.28844 27.7687C7.60533 28.8062 8.01933 29.7978 8.52022 30.7382L3.75667 33.488C2.13133 30.5184 1.18067 27.1349 1.09378 23.5367V23.5418ZM7.28844 18.2364L3.62378 17.2551C3.33756 17.1784 3.04111 17.3471 2.96444 17.6384C2.88778 17.9247 3.05644 18.2211 3.34778 18.2978L7.01244 19.2791C6.77222 20.3064 6.62911 21.3747 6.59333 22.4684H1.09378C1.18067 18.8753 2.13133 15.4867 3.75667 12.5171L8.52022 15.2669C8.01422 16.2073 7.60022 17.1989 7.28844 18.2364ZM27.7687 7.28844L28.75 3.62378C28.8267 3.33756 28.658 3.04111 28.3667 2.96444C28.0804 2.88778 27.784 3.05644 27.7073 3.34778L26.726 7.01244C25.6987 6.77222 24.6304 6.62911 23.5367 6.59333V1.09378C27.1298 1.18067 30.5184 2.13133 33.488 3.75667L30.7382 8.52022C29.7978 8.01422 28.8062 7.60022 27.7687 7.28844ZM22.4633 6.59333C21.3696 6.62911 20.3064 6.77222 19.274 7.01244L18.2927 3.34778C18.216 3.06156 17.9196 2.88778 17.6333 2.96444C17.3471 3.04111 17.1733 3.33756 17.25 3.62378L18.2313 7.28844C17.1938 7.60533 16.2022 8.01933 15.2618 8.52022L12.512 3.75667C15.4816 2.13133 18.8651 1.18067 22.4633 1.09378V6.59333ZM44.9113 22.4633H39.4118C39.376 21.3696 39.2329 20.3064 38.9927 19.274L42.6573 18.2927C42.9436 18.216 43.1173 17.9196 43.0407 17.6333C42.964 17.3471 42.6676 17.1733 42.3813 17.25L38.7167 18.2313C38.3998 17.1938 37.9858 16.2022 37.4849 15.2618L42.2484 12.512C43.8738 15.4816 44.8244 18.8651 44.9113 22.4633ZM38.7167 27.7738L42.3813 28.7551C42.4273 28.7653 42.4733 28.7756 42.5193 28.7756C42.7596 28.7756 42.9742 28.6171 43.0407 28.3769C43.1173 28.0907 42.9487 27.7942 42.6573 27.7176L38.9927 26.7362C39.2329 25.7089 39.376 24.6407 39.4118 23.5469H44.9113C44.8244 27.14 43.8738 30.5287 42.2484 33.4982L37.4849 30.7484C37.9909 29.808 38.4049 28.8164 38.7167 27.7789V27.7738ZM41.7067 11.5818L36.9431 14.3316C36.3758 13.4167 35.7164 12.5682 34.9856 11.7862L37.674 9.09778C37.8836 8.88822 37.8836 8.54578 37.674 8.33622C37.4644 8.12667 37.122 8.12667 36.9124 8.33622L34.224 11.0247C33.442 10.2938 32.5884 9.63445 31.6787 9.06711L34.4284 4.30356C37.3929 6.118 39.8922 8.62245 41.7118 11.5869L41.7067 11.5818ZM11.5767 4.29844L14.3264 9.06711C13.4116 9.63445 12.5631 10.2938 11.7811 11.0247L9.09267 8.33622C8.88311 8.12667 8.54067 8.12667 8.33111 8.33622C8.12156 8.54578 8.12156 8.88822 8.33111 9.09778L11.0196 11.7862C10.2887 12.5682 9.62933 13.4218 9.062 14.3316L4.29844 11.5818C6.11289 8.61733 8.61733 6.118 11.5818 4.29844H11.5767ZM4.29333 34.4233L9.062 31.6736C9.62933 32.5884 10.2887 33.4369 11.0196 34.2189L8.33111 36.9073C8.12156 37.1169 8.12156 37.4593 8.33111 37.6689C8.43844 37.7762 8.57644 37.8273 8.71444 37.8273C8.85244 37.8273 8.99044 37.7762 9.09778 37.6689L11.7862 34.9804C12.5682 35.7113 13.4218 36.3707 14.3316 36.938L11.5818 41.7016C8.61733 39.8871 6.118 37.3827 4.29844 34.4182L4.29333 34.4233ZM34.4182 41.7067L31.6684 36.9431C32.5833 36.3758 33.4318 35.7164 34.2138 34.9856L36.9022 37.674C37.0096 37.7813 37.1476 37.8324 37.2856 37.8324C37.4236 37.8324 37.5616 37.7813 37.6689 37.674C37.8784 37.4644 37.8784 37.122 37.6689 36.9124L34.9804 34.224C35.7113 33.442 36.3707 32.5884 36.938 31.6787L41.7016 34.4284C39.8871 37.3929 37.3827 39.8922 34.4182 41.7118V41.7067Z" fill="url(#paint0_linear_5_187)"/>
<path d="M23.0018 11.1982C16.4953 11.1982 11.2002 16.4934 11.2002 22.9998C11.2002 29.5062 16.4953 34.8014 23.0018 34.8014C29.5082 34.8014 34.8033 29.5062 34.8033 22.9998C34.8033 16.4934 29.5082 11.1982 23.0018 11.1982ZM23.0018 33.728C17.0882 33.728 12.2786 28.9185 12.2786 23.0049C12.2786 17.0914 17.0882 12.2818 23.0018 12.2818C28.9153 12.2818 33.7249 17.0914 33.7249 23.0049C33.7249 28.9185 28.9153 33.728 23.0018 33.728Z" fill="url(#paint1_linear_5_187)"/>
<defs>
<linearGradient id="paint0_linear_5_187" x1="6.63422" y1="6.63422" x2="37.5871" y2="37.5871" gradientUnits="userSpaceOnUse">
<stop stop-color="#FCEC45"/>
<stop offset="0.05" stop-color="#FCDF33"/>
<stop offset="0.12" stop-color="#FCD121"/>
<stop offset="0.2" stop-color="#FCC815"/>
<stop offset="0.28" stop-color="#FDC612"/>
<stop offset="0.67" stop-color="#F3903E"/>
<stop offset="0.89" stop-color="#ED683D"/>
<stop offset="1" stop-color="#E83F3A"/>
</linearGradient>
<linearGradient id="paint1_linear_5_187" x1="6.63597" y1="6.63402" x2="37.5889" y2="37.5869" gradientUnits="userSpaceOnUse">
<stop stop-color="#FCEC45"/>
<stop offset="0.05" stop-color="#FCDF33"/>
<stop offset="0.12" stop-color="#FCD121"/>
<stop offset="0.2" stop-color="#FCC815"/>
<stop offset="0.28" stop-color="#FDC612"/>
<stop offset="0.67" stop-color="#F3903E"/>
<stop offset="0.89" stop-color="#ED683D"/>
<stop offset="1" stop-color="#E83F3A"/>
</linearGradient>
</defs>
</svg>
