<svg width="192" height="44" viewBox="0 0 192 44" fill="none" xmlns="http://www.w3.org/2000/svg">
<path d="M120.694 21.7034C120.694 24.6575 120.69 27.6084 120.697 30.5625C120.697 30.8543 120.613 30.9613 120.304 30.9581C118.693 30.9419 117.078 30.9451 115.466 30.9581C115.213 30.9613 115.071 30.8673 114.928 30.676C114.503 30.1117 114.059 29.5605 113.628 29.0027C112.843 27.9975 112.065 26.989 111.277 25.9838C110.875 25.4682 110.456 24.9656 110.051 24.45C109.328 23.5258 108.611 22.5951 107.888 21.6742C107.149 20.7338 106.403 19.8032 105.664 18.866C105.469 18.6228 105.297 18.3634 105.103 18.117C105.057 18.0586 104.973 18.0327 104.905 17.9938C104.863 18.0683 104.798 18.1397 104.785 18.2207C104.769 18.3407 104.791 18.4704 104.791 18.5936C104.795 22.5854 104.795 26.5804 104.801 30.5722C104.801 30.8705 104.694 30.9613 104.396 30.9581C103.063 30.9419 101.73 30.9516 100.401 30.9516C100.031 30.9516 99.9922 30.9159 99.9922 30.543C99.9954 24.771 99.9954 18.999 99.9954 13.2302C99.9954 12.4552 99.9954 12.4552 100.761 12.4552C102.376 12.4552 103.987 12.4585 105.599 12.4487C105.832 12.4487 105.981 12.5201 106.121 12.7049C106.974 13.8561 107.833 15.004 108.696 16.1454C109.574 17.3031 110.466 18.451 111.345 19.6086C111.909 20.3512 112.46 21.1067 113.025 21.8526C113.423 22.3844 113.839 22.9032 114.237 23.435C114.607 23.9247 114.954 24.4305 115.33 24.9137C115.45 25.0661 115.632 25.1666 115.787 25.2898C115.81 25.1245 115.856 24.9623 115.856 24.7969C115.859 20.7922 115.859 16.7907 115.852 12.786C115.852 12.5233 115.95 12.4487 116.202 12.452C117.587 12.4617 118.972 12.4617 120.356 12.452C120.606 12.4487 120.707 12.5168 120.707 12.786C120.694 15.7563 120.697 18.7298 120.694 21.7034Z" fill="#1B1C2E"/>
<path d="M51.7828 21.6943C51.7828 18.7305 51.7861 15.7667 51.7764 12.8029C51.7764 12.537 51.838 12.4462 52.1201 12.4462C57.1041 12.4559 62.0882 12.4462 67.0754 12.4689C67.497 12.4721 67.925 12.6634 68.3401 12.7996C68.8751 12.9747 69.3648 13.2439 69.7928 13.6168C70.357 14.1064 70.8305 14.6577 71.0607 15.3873C71.2974 16.1331 71.5374 16.8757 71.505 17.6734C71.4985 17.868 71.4336 18.0593 71.3979 18.2506C71.3525 18.4711 71.3169 18.6948 71.2585 18.9121C71.1872 19.178 71.1191 19.4504 71.0023 19.7001C70.6813 20.394 70.1982 20.9518 69.5172 21.3182C69.2189 21.4803 68.9076 21.623 68.606 21.7819C68.5509 21.8111 68.5022 21.8792 68.4892 21.9375C68.4828 21.9635 68.5638 22.0348 68.6157 22.0478C69.3226 22.2035 69.8317 22.6218 70.169 23.2444C70.3311 23.5459 70.4511 23.8767 70.5613 24.201C71.038 25.605 70.9861 27.0707 71.051 28.5267C71.0834 29.2563 71.278 29.9697 71.6282 30.628C71.6703 30.7058 71.6833 30.7966 71.7125 30.8809C71.6185 30.9069 71.5244 30.9555 71.4304 30.9555C69.8479 30.9587 68.2655 30.9523 66.6863 30.962C66.4172 30.962 66.3328 30.8485 66.2291 30.6118C65.8789 29.8011 66.054 28.9483 65.9664 28.1214C65.8886 27.3788 65.9178 26.6135 65.7394 25.9001C65.5773 25.2581 65.1817 24.7198 64.5137 24.3923C64.0565 24.1685 63.6187 24.1718 63.1615 24.1685C61.1834 24.162 59.2054 24.1653 57.2306 24.162C56.8609 24.162 56.8058 24.2301 56.8058 24.6063C56.809 26.6038 56.809 28.5981 56.8188 30.5956C56.8188 30.8809 56.7182 30.9685 56.4296 30.9652C55.0028 30.9523 53.5793 30.9523 52.1525 30.9652C51.8607 30.9685 51.7796 30.8744 51.7796 30.5891C51.7861 27.622 51.7796 24.6582 51.7828 21.6943ZM60.6095 20.6243C61.7023 20.6243 62.7951 20.6178 63.8878 20.6275C64.3353 20.6307 64.7147 20.4297 65.0617 20.1995C65.7362 19.752 66.0605 19.1034 66.0572 18.2765C66.054 17.5015 65.8789 16.8011 65.2174 16.3407C64.6888 15.9742 64.0532 15.8283 63.4241 15.8186C61.3942 15.7861 59.3675 15.8056 57.3376 15.8024C56.8706 15.8024 56.809 15.8575 56.809 16.3147C56.809 17.5826 56.8123 18.8505 56.809 20.1184C56.809 20.5659 56.8577 20.6243 57.3019 20.6243C58.4012 20.6243 59.5037 20.6243 60.6095 20.6243Z" fill="#1B1C2E"/>
<path d="M76.8424 21.6775C76.8424 18.704 76.8457 15.7304 76.8359 12.7569C76.8359 12.4294 77.0208 12.4521 77.2413 12.4521C81.9659 12.4553 86.6905 12.4553 91.4151 12.4553C92.3004 12.4553 93.1856 12.4618 94.0677 12.4488C94.3271 12.4456 94.4114 12.5299 94.4082 12.7893C94.3952 13.6616 94.4049 14.5371 94.4049 15.4094C94.4049 15.7466 94.3401 15.8018 93.9996 15.8018C90.0856 15.7985 86.1749 15.7985 82.261 15.792C81.9756 15.792 81.8621 15.925 81.8621 16.1877C81.8621 17.2675 81.8589 18.3505 81.8621 19.4304C81.8621 19.693 81.9886 19.8227 82.2675 19.8227C85.9317 19.8162 89.5927 19.8162 93.257 19.813C93.6234 19.813 93.6721 19.8551 93.6688 20.2183C93.6688 21.0809 93.6656 21.9435 93.6688 22.806C93.6688 23.046 93.5975 23.1627 93.3251 23.1627C89.7678 23.153 86.2074 23.153 82.6501 23.1497C81.8589 23.1497 81.8589 23.1497 81.8589 23.9312C81.8589 24.9721 81.8589 26.0098 81.8589 27.0507C81.8589 27.4885 81.9335 27.5533 82.368 27.5533C86.123 27.5501 89.8813 27.5533 93.6364 27.5501C94.4341 27.5501 94.4114 27.456 94.4049 28.3251C94.3984 29.0839 94.3984 29.8427 94.4082 30.6015C94.4114 30.8706 94.3206 30.9582 94.045 30.9582C88.4351 30.9517 82.8285 30.9517 77.2186 30.9582C76.917 30.9582 76.8457 30.8349 76.8457 30.569C76.8489 27.6052 76.8489 24.6446 76.8489 21.6808C76.8489 21.6776 76.8457 21.6775 76.8424 21.6775Z" fill="#1B1C2E"/>
<path d="M167.706 12.5006C167.674 12.5882 167.664 12.6595 167.625 12.7146C166.977 13.6518 166.318 14.5857 165.67 15.5261C165.128 16.3108 164.6 17.1053 164.062 17.8932C163.413 18.8466 162.764 19.7967 162.116 20.7501C161.539 21.5996 160.961 22.446 160.384 23.2956C160.151 23.6393 159.911 23.9798 159.703 24.3397C159.609 24.5019 159.538 24.7029 159.538 24.8877C159.528 26.7815 159.528 28.672 159.538 30.5657C159.538 30.8543 159.454 30.9646 159.146 30.9613C157.719 30.9451 156.295 30.9451 154.868 30.9613C154.573 30.9646 154.492 30.8673 154.492 30.5852C154.502 28.6525 154.509 26.7166 154.492 24.784C154.489 24.557 154.379 24.3073 154.252 24.1095C153.831 23.4545 153.38 22.8221 152.939 22.1801C152.505 21.5445 152.073 20.9122 151.639 20.2766C151.052 19.4205 150.465 18.5677 149.881 17.7084C149.278 16.8264 148.678 15.9411 148.081 15.0559C147.618 14.3684 147.154 13.681 146.687 12.9935C146.58 12.8346 146.454 12.6887 146.292 12.4812C146.46 12.4682 146.557 12.4552 146.655 12.4552C148.412 12.4552 150.173 12.4585 151.931 12.4487C152.161 12.4487 152.297 12.5298 152.407 12.7179C152.926 13.6129 153.445 14.5111 153.973 15.4028C154.47 16.2427 154.982 17.0728 155.481 17.9094C155.929 18.6553 156.38 19.4011 156.814 20.1566C156.944 20.3836 157.07 20.3966 157.206 20.1988C157.43 19.8745 157.634 19.5373 157.839 19.2C158.283 18.4639 158.727 17.7246 159.165 16.982C159.703 16.0708 160.232 15.1564 160.77 14.2484C161.104 13.6874 161.441 13.1265 161.788 12.572C161.827 12.5103 161.941 12.4617 162.022 12.4617C163.873 12.4552 165.725 12.4585 167.58 12.4617C167.606 12.4585 167.635 12.4747 167.706 12.5006Z" fill="#1B1C2E"/>
<path d="M134.634 12.452C137.663 12.452 140.688 12.452 143.717 12.452C144.116 12.452 144.116 12.4552 144.116 12.8508C144.112 13.6939 144.116 14.5338 144.116 15.3769C144.116 15.7368 144.054 15.7984 143.701 15.7984C141.684 15.7984 139.663 15.7952 137.646 15.7952C137.205 15.7952 137.128 15.8795 137.128 16.3302C137.131 21.0711 137.131 25.8119 137.134 30.5495C137.134 30.9127 137.098 30.9516 136.719 30.9516C135.305 30.9516 133.888 30.9419 132.474 30.9581C132.163 30.9613 132.079 30.8478 132.079 30.5625C132.085 25.8314 132.085 21.1035 132.088 16.3724C132.088 16.3302 132.088 16.2881 132.088 16.2492C132.079 15.873 131.998 15.7952 131.625 15.7952C130.574 15.7952 129.523 15.7952 128.473 15.7984C127.516 15.7984 126.56 15.8017 125.6 15.8017C125.204 15.8017 125.149 15.7433 125.152 15.3477C125.152 14.5046 125.162 13.6647 125.146 12.8216C125.139 12.533 125.237 12.4487 125.522 12.4487C128.557 12.4585 131.596 12.452 134.634 12.452Z" fill="#1B1C2E"/>
<path d="M170.355 12.4715C170.553 12.4618 170.664 12.452 170.774 12.452C172.512 12.452 174.25 12.4585 175.988 12.4455C176.251 12.4423 176.432 12.5169 176.598 12.7244C177.561 13.9372 178.53 15.1402 179.503 16.3433C180.281 17.3031 181.073 18.25 181.844 19.2163C182.94 20.5847 184.017 21.9694 185.113 23.341C185.995 24.4435 186.897 25.5298 187.785 26.6259C188.706 27.7641 189.624 28.9055 190.545 30.0437C190.694 30.2285 190.846 30.4166 190.979 30.6144C191.034 30.6955 191.041 30.8122 191.083 30.9516C190.833 30.9516 190.635 30.9516 190.441 30.9516C188.712 30.9516 186.984 30.9484 185.259 30.9549C185.058 30.9549 184.906 30.9127 184.776 30.7441C184.409 30.2772 184.027 29.8297 183.66 29.3627C182.603 28.0138 181.562 26.6551 180.499 25.3093C179.746 24.356 178.965 23.4253 178.209 22.4752C177.486 21.564 176.783 20.6366 176.063 19.7222C175.576 19.1028 175.074 18.4932 174.584 17.8738C173.819 16.9042 173.06 15.9314 172.291 14.9619C171.717 14.2355 171.137 13.5189 170.56 12.7958C170.498 12.7212 170.453 12.6304 170.355 12.4715Z" fill="#1B1C2E"/>
<path d="M169.678 30.9191C169.726 30.8154 169.746 30.744 169.788 30.6889C170.839 29.3886 171.896 28.0915 172.943 26.7879C174.023 25.4455 175.093 24.0933 176.163 22.7411C176.303 22.5659 176.416 22.5919 176.543 22.7346C176.714 22.9291 176.89 23.1205 177.052 23.3247C177.765 24.2327 178.475 25.1374 179.179 26.0518C179.429 26.3761 179.393 26.5285 179.133 26.8496C178.537 27.5824 177.956 28.3282 177.366 29.0676C176.912 29.635 176.458 30.2025 175.988 30.757C175.907 30.8543 175.751 30.9386 175.628 30.9386C173.725 30.9516 171.818 30.9483 169.914 30.9483C169.85 30.9548 169.791 30.9386 169.678 30.9191Z" fill="#1B1C2E"/>
<path d="M187.412 12.452C188.317 12.452 189.222 12.4487 190.126 12.4552C190.211 12.4552 190.295 12.5006 190.379 12.5233C190.35 12.6174 190.344 12.7276 190.289 12.7989C189.202 14.1609 188.1 15.5163 187.017 16.8815C186.261 17.8316 185.525 18.7947 184.782 19.7545C184.504 20.1177 184.426 20.121 184.137 19.761C183.291 18.7104 182.448 17.6598 181.598 16.6091C181.429 16.4016 181.417 16.2168 181.595 15.9963C182.454 14.9294 183.314 13.8626 184.153 12.7795C184.345 12.533 184.539 12.4325 184.854 12.439C185.703 12.4682 186.559 12.452 187.412 12.452Z" fill="#1B1C2E"/>
<path d="M43.3712 0V43.4035H0V0H43.3712Z" fill="url(#paint0_linear_708_70)"/>
<path d="M38.9412 23.0427C38.5943 22.8709 38.2992 22.7282 38.0041 22.5823C36.1168 21.6419 34.2296 20.7015 32.3391 19.7676C32.1251 19.6606 32.031 19.5438 32.0472 19.2974C32.0732 18.9472 32.0375 18.5905 32.057 18.237C32.0699 17.9938 31.9889 17.8674 31.7684 17.7571C28.8759 16.3206 25.9866 14.8744 23.0941 13.4313C22.6953 13.2303 22.2997 13.0228 21.8944 12.8379C21.703 12.7504 21.6382 12.6336 21.6447 12.4294C21.6576 11.9624 21.6479 11.4954 21.6479 10.9442C18.162 12.6823 14.7345 14.3912 11.2583 16.126C11.2583 15.5586 11.2486 15.0624 11.268 14.5663C11.2713 14.482 11.3783 14.3717 11.4626 14.3296C13.3012 13.4054 15.143 12.4845 16.9849 11.5668C18.4344 10.8437 19.8839 10.1238 21.3301 9.39418C21.5344 9.29041 21.6965 9.28393 21.9073 9.39094C25.163 11.0285 28.4252 12.6563 31.6873 14.2777C31.9013 14.3847 32.0019 14.5014 31.9889 14.7511C31.9662 15.1143 31.9954 15.4807 31.9791 15.8439C31.9662 16.0839 32.0505 16.2168 32.271 16.3238C34.395 17.3745 36.5092 18.4413 38.6332 19.492C38.8602 19.6022 38.951 19.7254 38.9477 19.9849C38.9315 20.9804 38.9412 21.9791 38.9412 23.0427Z" fill="white"/>
<path d="M21.6578 21.3143C18.1654 23.0589 14.7411 24.7646 11.265 26.4994C11.265 25.9319 11.252 25.4293 11.2779 24.9267C11.2812 24.8424 11.4239 24.7419 11.5244 24.6932C13.4181 23.7431 15.3183 22.7995 17.2121 21.8526C18.5383 21.1911 19.8711 20.5361 21.1876 19.8551C21.4957 19.6962 21.7324 19.693 22.047 19.8486C25.254 21.4667 28.4675 23.0686 31.6843 24.6673C31.9048 24.7775 31.9923 24.8943 31.9761 25.1407C31.9534 25.5039 31.9858 25.8703 31.9631 26.2303C31.9502 26.4767 32.0442 26.5999 32.2615 26.7069C34.3757 27.7543 36.4802 28.8179 38.5945 29.8589C38.8604 29.9886 38.9447 30.141 38.9414 30.4263C38.922 31.4024 38.935 32.3784 38.935 33.4129C38.6366 33.2702 38.374 33.147 38.1113 33.014C36.1884 32.0574 34.2687 31.0943 32.3393 30.1442C32.122 30.0372 32.0345 29.9172 32.0507 29.6708C32.0734 29.3303 32.041 28.9833 32.0604 28.6428C32.0766 28.3769 31.9826 28.2375 31.7394 28.1175C29.7938 27.1577 27.8546 26.1849 25.9123 25.2121C24.5828 24.5473 23.2565 23.8793 21.927 23.2275C21.7194 23.127 21.6384 23.007 21.6481 22.7768C21.6708 22.3261 21.6578 21.8688 21.6578 21.3143Z" fill="white"/>
<path d="M38.938 28.2277C38.7273 28.124 38.5619 28.0462 38.3965 27.9651C36.3795 26.9631 34.3658 25.9546 32.3456 24.9591C32.1348 24.8553 32.0311 24.7451 32.0505 24.4921C32.0797 24.129 32.0408 23.7658 32.0635 23.4026C32.0765 23.1659 31.9792 23.0524 31.7781 22.9519C28.9343 21.538 26.0904 20.121 23.2466 18.7007C22.7926 18.4737 22.3419 18.2337 21.8814 18.0197C21.6966 17.9354 21.6479 17.8187 21.6512 17.6306C21.6609 17.1572 21.6544 16.6805 21.6544 16.1292C18.1653 17.8706 14.741 19.5795 11.2615 21.3143C11.2615 20.7468 11.2486 20.241 11.2745 19.7383C11.2778 19.6475 11.4334 19.5405 11.5437 19.4887C14.3843 18.0651 17.2281 16.6481 20.072 15.231C20.526 15.004 20.9767 14.7673 21.4404 14.5565C21.5442 14.5111 21.7063 14.5046 21.8068 14.5533C25.1274 16.2006 28.4414 17.8608 31.7619 19.5114C31.9273 19.5924 31.9857 19.6929 31.9792 19.8713C31.9662 20.2669 31.9889 20.6625 31.9695 21.0549C31.9597 21.2884 32.0538 21.4083 32.2581 21.5089C34.382 22.5627 36.4963 23.6296 38.6235 24.677C38.8635 24.797 38.9543 24.9267 38.9478 25.1958C38.9316 26.0908 38.9413 26.9825 38.9413 27.8775C38.938 27.9781 38.938 28.0786 38.938 28.2277Z" fill="white"/>
<path d="M38.9384 38.6141C38.5006 38.4001 38.1115 38.2088 37.7223 38.0142C35.9194 37.116 34.1197 36.2145 32.3135 35.3228C32.1125 35.2255 32.0476 35.1088 32.0573 34.8948C32.0736 34.5316 32.0444 34.1652 32.0671 33.8052C32.0833 33.5588 31.9892 33.4323 31.7752 33.3253C29.8393 32.3655 27.9099 31.3991 25.9773 30.4328C24.6316 29.7616 23.2858 29.0838 21.9336 28.4223C21.7261 28.3218 21.6483 28.1986 21.658 27.9684C21.6775 27.5144 21.6645 27.0572 21.6645 26.5027C18.1721 28.244 14.7478 29.9529 11.2684 31.691C11.2684 31.1235 11.2554 30.6274 11.2814 30.1345C11.2846 30.0437 11.437 29.9334 11.544 29.8815C13.4929 28.9022 15.4482 27.9327 17.4003 26.9599C18.7104 26.3081 20.0172 25.6563 21.3208 24.9916C21.5348 24.8813 21.7066 24.8781 21.9271 24.9883C25.1731 26.6194 28.4255 28.244 31.6779 29.8653C31.8887 29.9691 31.9957 30.0794 31.9795 30.3323C31.9536 30.6955 31.986 31.0586 31.9665 31.4218C31.9536 31.6618 32.0379 31.7947 32.2584 31.905C34.3726 32.9524 36.4804 34.0128 38.5946 35.0569C38.854 35.1834 38.9513 35.3293 38.9448 35.6211C38.9254 36.5972 38.9384 37.5732 38.9384 38.6141Z" fill="white"/>
<path d="M21.6447 5.75263C18.1555 7.49396 14.7312 9.20287 11.255 10.9377C11.255 10.3605 11.2486 9.86438 11.2615 9.36825C11.2648 9.29042 11.3556 9.18666 11.4334 9.14775C13.4114 8.15224 15.3895 7.16321 17.3708 6.17742C18.6517 5.53861 19.939 4.91277 21.2134 4.25775C21.5052 4.10534 21.7257 4.10858 22.0176 4.25775C25.2376 5.8791 28.4641 7.48423 31.6906 9.08937C31.9078 9.19638 31.9921 9.32285 31.9857 9.56605C31.9727 10.4902 31.9792 11.4176 31.9759 12.3418C31.9759 12.4326 31.963 12.5202 31.9532 12.6628C31.603 12.491 31.2885 12.3418 30.9772 12.1862C27.9582 10.6783 24.9393 9.17044 21.9203 7.66583C21.7193 7.56531 21.6252 7.44857 21.6349 7.21509C21.6576 6.75463 21.6447 6.29741 21.6447 5.75263Z" fill="white"/>
<path d="M11.2682 36.8826C11.2682 36.3314 11.252 35.8547 11.2811 35.378C11.2876 35.2678 11.44 35.1283 11.5568 35.0699C13.5056 34.0874 15.461 33.1178 17.4131 32.145C18.7199 31.4932 20.0299 30.8415 21.3335 30.1767C21.5378 30.0729 21.7032 30.0697 21.9107 30.1767C25.1567 31.8078 28.4058 33.4324 31.6583 35.0473C31.882 35.1575 31.9793 35.2742 31.9728 35.5337C31.9534 36.4481 31.9663 37.3625 31.9663 38.277C31.9663 38.3678 31.9663 38.4586 31.9663 38.6045C31.7199 38.4878 31.5188 38.3937 31.3178 38.2932C28.1886 36.7302 25.0626 35.1672 21.9302 33.6107C21.7356 33.5134 21.6545 33.4064 21.661 33.1827C21.6772 32.7093 21.6675 32.2358 21.6675 31.6878C18.1719 33.4356 14.7476 35.1445 11.2682 36.8826Z" fill="white"/>
<path d="M4.29312 26.5027C4.29312 25.9611 4.28664 25.4682 4.29961 24.9721C4.30285 24.9008 4.38067 24.8002 4.45201 24.7678C6.64732 23.6653 8.84588 22.5693 11.0444 21.4732C11.0606 21.4667 11.0833 21.4732 11.1709 21.4732C11.1709 21.7942 11.1352 22.1218 11.1774 22.4395C11.2422 22.9324 11.0574 23.1821 10.6002 23.3994C8.58971 24.3625 6.60517 25.371 4.60767 26.3632C4.5266 26.4054 4.43256 26.4443 4.29312 26.5027Z" fill="white"/>
<path d="M11.1678 26.6648C11.1678 27.1772 11.1808 27.683 11.1549 28.1856C11.1516 28.2667 11.0057 28.3672 10.9052 28.4159C9.01468 29.3627 7.12093 30.3064 5.2272 31.25C4.93535 31.3959 4.64027 31.5386 4.29654 31.7072C4.29654 31.1559 4.29006 30.6631 4.30303 30.1669C4.30627 30.0956 4.38409 29.9951 4.45219 29.9594C6.65723 28.8536 8.86551 27.7576 11.0738 26.6583C11.0803 26.6583 11.0932 26.6616 11.1678 26.6648Z" fill="white"/>
<path d="M11.1646 31.8596C11.1646 32.372 11.1776 32.8778 11.1516 33.3804C11.1484 33.4615 11.0025 33.562 10.9019 33.6139C9.01143 34.5608 7.11769 35.5044 5.22396 36.4448C4.93211 36.5907 4.63703 36.7334 4.29654 36.8988C4.29654 36.354 4.29006 35.8708 4.30303 35.3877C4.30627 35.3066 4.39058 35.1964 4.46516 35.1575C6.65075 34.0582 8.84281 32.9654 11.0316 31.8726C11.0576 31.8564 11.0933 31.8629 11.1646 31.8596Z" fill="white"/>
<defs>
<linearGradient id="paint0_linear_708_70" x1="0" y1="43.4034" x2="43.3712" y2="43.4034" gradientUnits="userSpaceOnUse">
<stop stop-color="#EF6A20"/>
<stop offset="1" stop-color="#E83F3A"/>
</linearGradient>
</defs>
</svg>
