<svg width="20" height="21" viewBox="0 0 20 21" fill="none" xmlns="http://www.w3.org/2000/svg">
<path d="M19.4141 14.6406C19.7266 14.7969 19.9609 15.1484 19.9609 15.5391C19.9609 15.5781 19.9609 15.6562 19.9609 15.7344L19.0234 19.7969C18.9062 20.2266 18.5547 20.5 18.125 20.5C8.08594 20.5 0 12.4141 0 2.375C0 1.94531 0.273438 1.59375 0.703125 1.47656L4.76562 0.539062C4.84375 0.539062 4.92188 0.5 4.96094 0.5C5.35156 0.5 5.70312 0.734375 5.85938 1.08594L7.73438 5.46094C7.77344 5.57812 7.8125 5.69531 7.8125 5.8125C7.8125 6.125 7.65625 6.39844 7.46094 6.55469L5.07812 8.50781C6.52344 11.5547 8.94531 13.9766 11.9922 15.4219L13.9453 13.0391C14.1016 12.8438 14.375 12.6875 14.6484 12.6875C14.8047 12.6875 14.9219 12.7266 15.0391 12.7656L19.4141 14.6406Z" fill="#FF7223"/>
</svg>
