<?xml version="1.0" standalone="no"?>
<!DOCTYPE svg PUBLIC "-//W3C//DTD SVG 20010904//EN"
 "http://www.w3.org/TR/2001/REC-SVG-20010904/DTD/svg10.dtd">
<svg version="1.0" xmlns="http://www.w3.org/2000/svg"
 width="262.000000pt" height="262.000000pt" viewBox="0 0 262.000000 262.000000"
 preserveAspectRatio="xMidYMid meet">
<metadata>
Created by potrace 1.14, written by Peter Selinger 2001-2017
</metadata>
<g transform="translate(0.000000,262.000000) scale(0.100000,-0.100000)"
fill="#000000" stroke="none">
<path d="M20 1300 l0 -1300 1300 0 1300 0 0 1300 0 1300 -1300 0 -1300 0 0
-1300z m1615 897 l300 -152 3 -102 3 -102 -298 146 c-164 80 -304 150 -310
155 -7 6 -13 32 -13 59 0 27 -2 49 -5 49 -3 0 -140 -67 -305 -150 -165 -82
-305 -150 -310 -150 -7 0 -10 19 -8 48 l3 47 300 152 c165 84 309 152 320 152
11 0 155 -68 320 -152z m0 -310 l300 -152 3 -53 3 -52 202 -101 c111 -56 205
-107 209 -113 10 -15 10 -196 1 -196 -5 1 -98 47 -208 103 l-200 102 -3 50 -3
50 -307 155 -307 155 -3 53 c-2 28 -5 52 -8 52 -2 0 -139 -67 -304 -150 -165
-82 -304 -150 -310 -150 -12 0 -13 70 -1 89 11 17 598 309 621 310 8 0 150
-68 315 -152z m-5 -310 l305 -152 3 -53 3 -52 202 -101 c111 -56 205 -107 209
-113 10 -15 10 -196 1 -196 -5 1 -98 47 -208 103 l-200 102 -3 50 -3 51 -309
154 -310 155 0 52 0 53 -300 -150 c-165 -82 -307 -150 -316 -150 -14 0 -16 8
-11 45 2 26 6 48 8 49 11 10 605 305 614 305 6 -1 147 -69 315 -152z m0 -312
l309 -155 3 -52 3 -53 205 -105 205 -105 3 -98 3 -99 -23 8 c-40 12 -383 186
-390 198 -4 6 -8 31 -8 56 l0 45 -310 155 -310 155 0 52 0 53 -310 -155 c-189
-95 -312 -151 -316 -144 -3 6 -3 29 0 53 l7 42 305 152 c168 84 307 152 310
152 2 0 143 -70 314 -155z m-940 1 c0 -24 -6 -48 -13 -54 -7 -6 -99 -54 -205
-106 l-192 -96 0 50 0 50 198 99 c108 55 200 100 205 100 4 1 7 -19 7 -43z
m940 -311 l310 -155 0 -53 0 -52 208 -105 207 -105 3 -98 c2 -63 -1 -97 -8
-97 -5 0 -100 45 -210 100 l-199 100 -3 52 -3 53 -305 153 -305 153 -3 54 -3
55 -309 -155 -310 -155 0 50 0 50 308 154 c169 85 308 155 310 155 1 1 142
-69 312 -154z m-940 -5 l0 -50 -200 -100 c-110 -55 -202 -100 -205 -100 -3 0
-5 22 -5 50 l0 50 198 99 c108 55 200 100 205 100 4 1 7 -21 7 -49z m945 -313
l300 -152 3 -97 c2 -63 -1 -98 -8 -98 -5 0 -145 68 -310 150 l-300 150 0 55 0
55 -309 -154 c-302 -151 -309 -154 -314 -130 -12 67 -15 65 302 224 163 82
305 149 316 149 11 0 155 -68 320 -152z m-945 3 l0 -50 -200 -100 c-110 -55
-202 -100 -205 -100 -3 0 -5 22 -5 50 l0 50 198 99 c108 55 200 100 205 100 4
1 7 -21 7 -49z"/>
</g>
</svg>
