<svg width="50" height="42" viewBox="0 0 50 42" fill="none" xmlns="http://www.w3.org/2000/svg">
<g clip-path="url(#clip0_5_556)">
<path d="M40.6401 13.9748C40.6401 13.4348 40.1901 12.9812 39.6465 12.9812C39.5025 12.9812 39.3585 12.9812 39.2145 12.9812H39.2109C37.9977 12.9812 36.7809 12.9812 35.5677 12.9812C32.5545 12.9812 29.5413 12.9812 26.5281 12.9812C23.4645 12.9812 20.3973 12.9812 17.3337 12.9812C16.0521 12.9812 14.7705 12.9812 13.4889 12.9812C13.1469 11.804 12.8085 10.6304 12.4665 9.45322C12.3873 9.18322 12.3117 8.91322 12.2325 8.64682C12.1101 8.22202 11.7213 7.91602 11.2749 7.91602C9.63331 7.91602 7.99531 7.91602 6.35371 7.91602C5.81371 7.91602 5.36011 8.36602 5.36011 8.90962C5.36011 9.44962 5.81011 9.90322 6.35371 9.90322C7.74691 9.90322 9.13651 9.90322 10.5297 9.90322C10.8969 11.1632 11.2605 12.4268 11.6277 13.6868C12.2253 15.7496 12.8229 17.8088 13.4205 19.8716C13.4313 20.012 13.4709 20.1416 13.5321 20.2604C13.7805 21.11 14.0253 21.9632 14.2737 22.8128C14.9613 25.1888 15.6525 27.5612 16.3401 29.9372C16.4193 30.2072 16.4949 30.4772 16.5741 30.7436C16.6965 31.1684 17.0853 31.4744 17.5317 31.4744C19.3173 31.4744 21.1029 31.4744 22.8885 31.4744C26.0421 31.4744 29.1993 31.4744 32.3529 31.4744C33.6453 31.4744 34.9413 31.4744 36.2337 31.4744C36.7737 31.4744 37.2273 31.0244 37.2273 30.4808C37.2273 29.9408 36.7773 29.4872 36.2337 29.4872C34.4481 29.4872 32.6625 29.4872 30.8769 29.4872C27.7233 29.4872 24.5661 29.4872 21.4125 29.4872C20.3685 29.4872 19.3209 29.4872 18.2769 29.4872C18.0069 28.5584 17.7369 27.6296 17.4669 26.6972C18.7701 26.6972 20.0697 26.6972 21.3729 26.6972C24.5553 26.6972 27.7377 26.6972 30.9165 26.6972C32.3817 26.6972 33.8469 26.6972 35.3121 26.6972H35.3157C35.4381 26.6972 35.5641 26.6972 35.6865 26.6972C36.2265 26.6972 36.6801 26.2472 36.6801 25.7036C36.6801 25.502 36.6189 25.3112 36.5109 25.1564C37.1481 23.2772 37.7817 21.398 38.4189 19.5152C38.9373 17.978 39.4593 16.4408 39.9777 14.9036C40.3593 14.7704 40.6401 14.3996 40.6401 13.9748ZM37.8645 14.9684C37.4325 16.2464 37.0005 17.528 36.5649 18.806C35.2041 18.806 33.8469 18.806 32.4861 18.806C32.4717 18.806 32.4573 18.806 32.4429 18.806C32.6049 17.528 32.7669 16.2464 32.9289 14.9684C33.6453 14.9684 34.3617 14.9684 35.0781 14.9684C36.0069 14.9684 36.9357 14.9684 37.8645 14.9684ZM31.6941 24.7136C31.8597 23.4068 32.0253 22.1 32.1909 20.7896C33.4257 20.7896 34.6605 20.7896 35.8953 20.7896C35.4525 22.0964 35.0097 23.4032 34.5705 24.7136C33.6093 24.7136 32.6517 24.7136 31.6941 24.7136ZM26.9817 24.7136C26.9817 23.4068 26.9817 22.1 26.9817 20.7896C27.5073 20.7896 28.0293 20.7896 28.5549 20.7896C29.1057 20.7896 29.6529 20.7896 30.2037 20.7896C30.2001 20.8148 30.1965 20.84 30.1929 20.8652C30.0309 22.1468 29.8689 23.4284 29.7033 24.71C28.7997 24.7136 27.8889 24.7136 26.9817 24.7136ZM22.2729 24.7136C22.1073 23.4068 21.9417 22.1 21.7761 20.7896C22.8489 20.7896 23.9253 20.7896 24.9981 20.7896C24.9981 20.8436 24.9981 20.894 24.9981 20.948C24.9981 22.2044 24.9981 23.4572 24.9981 24.7136C24.0873 24.7136 23.1801 24.7136 22.2729 24.7136ZM15.7533 20.7932C16.8585 20.7932 17.9637 20.7932 19.0653 20.7932C19.3065 20.7932 19.5477 20.7932 19.7889 20.7932C19.7925 20.8184 19.7961 20.8436 19.7997 20.8688C19.9617 22.1504 20.1237 23.432 20.2893 24.7136C19.1589 24.7136 18.0249 24.7136 16.8945 24.7136C16.5129 23.4068 16.1313 22.1 15.7533 20.7932ZM26.9817 14.9684C28.3029 14.9684 29.6241 14.9684 30.9417 14.9684C30.7797 16.2464 30.6177 17.528 30.4557 18.806C29.2965 18.806 28.1409 18.806 26.9817 18.806C26.9817 18.7808 26.9817 18.7556 26.9817 18.7304C26.9817 17.4776 26.9817 16.2212 26.9817 14.9684ZM24.9981 18.806C24.3321 18.806 23.6661 18.806 23.0001 18.806C22.5105 18.806 22.0173 18.806 21.5277 18.806C21.3657 17.528 21.2037 16.2464 21.0417 14.9684C22.3629 14.9684 23.6841 14.9684 25.0017 14.9684C24.9981 16.2464 24.9981 17.528 24.9981 18.806ZM16.8441 14.9684C17.5785 14.9684 18.3129 14.9684 19.0473 14.9684C19.2093 16.2464 19.3713 17.528 19.5333 18.806C18.1581 18.806 16.7829 18.806 15.4041 18.806C15.3285 18.806 15.2493 18.806 15.1737 18.806C14.9577 18.0644 14.7417 17.3228 14.5293 16.5812C14.3745 16.0448 14.2161 15.5048 14.0613 14.9684C14.9901 14.9684 15.9189 14.9684 16.8441 14.9684Z" fill="white"/>
<path d="M23.5796 35.3014C23.4932 33.883 22.352 32.7778 20.9156 32.749C19.4432 32.7202 18.2768 33.991 18.248 35.4166C18.2192 36.889 19.49 38.0554 20.9156 38.0842C22.3484 38.113 23.4896 36.9106 23.5796 35.5318C23.5832 35.4958 23.5868 35.4562 23.5832 35.4166C23.5832 35.377 23.5832 35.3374 23.5796 35.3014Z" fill="white"/>
<path d="M35.4957 35.3014C35.4093 33.883 34.2681 32.7778 32.8317 32.749C31.3593 32.7202 30.1929 33.991 30.1641 35.4166C30.1353 36.889 31.4061 38.0554 32.8317 38.0842C34.2645 38.113 35.4057 36.9106 35.4957 35.5318C35.4993 35.4958 35.5029 35.4562 35.4993 35.4166C35.4993 35.377 35.4993 35.3374 35.4957 35.3014Z" fill="white"/>
</g>
<defs>
<clipPath id="clip0_5_556">
<rect width="36" height="36" fill="white" transform="translate(5 5)"/>
</clipPath>
</defs>
</svg>
